<?xml version="1.0" encoding="utf-8"?>
<!-- Generator: Adobe Illustrator 19.0.0, SVG Export Plug-In . SVG Version: 6.00 Build 0)  -->
<svg version="1.1" id="Layer_1" xmlns="http://www.w3.org/2000/svg" xmlns:xlink="http://www.w3.org/1999/xlink" x="0px" y="0px" width="25" height="25"
	 viewBox="0 0 512 512" style="enable-background:new 0 0 512 512;" xml:space="preserve">
<g id="XMLID_1_">
	<path id="XMLID_6_" d="M448.2,178v-1.6c0-79.6-64.6-144.1-144.1-144.1c-53.6,0-99.2,29.1-124.5,72.5c-11-5.5-22.8-8.7-35.4-8.7
		c-44.1,0-80.3,35.4-80.3,80.3v1.6C26,200.1,0,241,0,288.3c0,70.1,57.5,128.4,128.4,128.4h32.3v-32.3h-32.3
		c-52.8,0-96.1-43.3-96.1-96.1c0-33.9,18.1-65.4,48-82.7l15.8-9.5V178v-3.2c0.8-26,22.1-46.5,48-46.5c7.1,0,14.2,1.6,21.3,5.5
		l26.8,13.4l15-26c20.5-35.4,56.7-56.7,96.9-56.7c61.4,0,111.1,48.8,111.9,110.3v1.6v21.3l15.8,9.5c29.9,17.3,48,48.8,48,82.7
		c0,52.8-43.3,96.1-96.1,96.1h-32.3v32.3h32.3c70.1,0,128.4-57.5,128.4-128.4C512,241,486,200.1,448.2,178z" style="fill: rgb(62,178,253);"/>
	<polygon id="XMLID_7_" points="256,192.2 159.9,319.8 223.7,319.8 223.7,479.7 288.3,479.7 288.3,319.8 352.1,319.8 	" style="fill: rgb(62,178,253);"/>
</g>
</svg>
